<svg width="30" height="30" viewBox="0 0 30 30" fill="none" xmlns="http://www.w3.org/2000/svg">
<g clip-path="url(#clip0_141_208)">
<path fill-rule="evenodd" clip-rule="evenodd" d="M14.4704 0H15.5279C15.8403 0 16.0981 0.255626 16.0981 0.570242V2.57592H13.9023V0.570242C13.9023 0.255626 14.158 0 14.4704 0ZM16.0981 27.4219V29.4298C16.0981 29.7422 15.8403 30 15.5279 30H14.4704C14.158 30 13.9023 29.7422 13.9023 29.4298V27.4219H16.0981Z" fill="#E4C2FF"/>
<path fill-rule="evenodd" clip-rule="evenodd" d="M0 15.5276V14.4702C0 14.1577 0.255626 13.9021 0.570242 13.9021H2.57592V16.0979H0.570242C0.255626 16.0979 0 15.8401 0 15.5276ZM27.4219 13.9021H29.4298C29.7422 13.9021 30 14.1577 30 14.4702V15.5276C30 15.8401 29.7422 16.0979 29.4298 16.0979H27.4219V13.9021Z" fill="#E4C2FF"/>
<path fill-rule="evenodd" clip-rule="evenodd" d="M17.4724 0H18.5298C18.8422 0 19.1001 0.255626 19.1001 0.570242V2.57592H16.9043V0.570242C16.9043 0.255626 17.1599 0 17.4724 0ZM19.1001 27.4219V29.4298C19.1001 29.7422 18.8422 30 18.5298 30H17.4724C17.1599 30 16.9043 29.7422 16.9043 29.4298V27.4219H19.1001Z" fill="#E4C2FF"/>
<path fill-rule="evenodd" clip-rule="evenodd" d="M0 12.5257V11.4682C0 11.1558 0.255626 10.9001 0.570242 10.9001H2.57592V13.0959H0.570242C0.255626 13.0959 0 12.8403 0 12.5257ZM27.4219 10.9001H29.4298C29.7422 10.9001 30 11.1558 30 11.4682V12.5257C30 12.8403 29.7422 13.0959 29.4298 13.0959H27.4219V10.9001Z" fill="#E4C2FF"/>
<path fill-rule="evenodd" clip-rule="evenodd" d="M20.4743 0H21.5318C21.8442 0 22.102 0.255626 22.102 0.570242V2.57592H19.9062V0.570242C19.9062 0.255626 20.1619 0 20.4743 0ZM22.102 27.4219V29.4298C22.102 29.7422 21.8442 30 21.5318 30H20.4743C20.1619 30 19.9062 29.7422 19.9062 29.4298V27.4219H22.102Z" fill="#E4C2FF"/>
<path fill-rule="evenodd" clip-rule="evenodd" d="M0 9.52371V8.46625C0 8.15382 0.255626 7.89819 0.570242 7.89819H2.57592V10.094H0.570242C0.255626 10.094 0 9.83833 0 9.52371ZM27.4219 7.89819H29.4298C29.7422 7.89819 30 8.15382 30 8.46625V9.52371C30 9.83833 29.7422 10.094 29.4298 10.094H27.4219V7.89819Z" fill="#E4C2FF"/>
<path fill-rule="evenodd" clip-rule="evenodd" d="M11.4684 0H12.5259C12.8405 0 13.0962 0.255626 13.0962 0.570242V2.57592H10.9004V0.570242C10.9004 0.255626 11.156 0 11.4684 0ZM13.0962 27.4219V29.4298C13.0962 29.7422 12.8405 30 12.5259 30H11.4684C11.156 30 10.9004 29.7422 10.9004 29.4298V27.4219H13.0962Z" fill="#E4C2FF"/>
<path fill-rule="evenodd" clip-rule="evenodd" d="M0 18.5296V17.4721C0 17.1597 0.255626 16.9041 0.570242 16.9041H2.57592V19.0998H0.570242C0.255626 19.0998 0 18.842 0 18.5296ZM27.4219 16.9041H29.4298C29.7422 16.9041 30 17.1597 30 17.4721V18.5296C30 18.842 29.7422 19.0998 29.4298 19.0998H27.4219V16.9041Z" fill="#E4C2FF"/>
<path fill-rule="evenodd" clip-rule="evenodd" d="M8.4665 0H9.52396C9.83857 0 10.0942 0.255626 10.0942 0.570242V2.57592H7.89844V0.570242C7.89844 0.255626 8.15406 0 8.4665 0ZM10.0942 27.4219V29.4298C10.0942 29.7422 9.83857 30 9.52396 30H8.4665C8.15406 30 7.89844 29.7422 7.89844 29.4298V27.4219H10.0942Z" fill="#E4C2FF"/>
<path fill-rule="evenodd" clip-rule="evenodd" d="M0 21.5315V20.4741C0 20.1616 0.255626 19.906 0.570242 19.906H2.57592V22.1018H0.570242C0.255626 22.1018 0 21.844 0 21.5315ZM27.4219 19.906H29.4298C29.7422 19.906 30 20.1616 30 20.4741V21.5315C30 21.844 29.7422 22.1018 29.4298 22.1018H27.4219V19.906Z" fill="#E4C2FF"/>
<path fill-rule="evenodd" clip-rule="evenodd" d="M6.87779 3.59192H23.1199C24.9289 3.59192 26.4081 5.07105 26.4081 6.87791V23.12C26.4081 24.929 24.9289 26.4082 23.1199 26.4082H6.87779C5.07093 26.4082 3.5918 24.929 3.5918 23.12V6.87791C3.5918 5.07105 5.07093 3.59192 6.87779 3.59192ZM7.5966 5.47962H22.4032C23.5678 5.47962 24.5204 6.43221 24.5204 7.59673V22.4034C24.5204 23.5679 23.5678 24.5205 22.4032 24.5205H7.5966C6.43209 24.5205 5.4795 23.5679 5.4795 22.4034V7.59673C5.4795 6.43221 6.43209 5.47962 7.5966 5.47962Z" fill="#E4C2FF"/>
<path d="M21.5949 6.94336H8.40283C7.59679 6.94336 6.94336 7.59679 6.94336 8.40283V21.5949C6.94336 22.4009 7.59679 23.0543 8.40283 23.0543H21.5949C22.4009 23.0543 23.0543 22.4009 23.0543 21.5949V8.40283C23.0543 7.59679 22.4009 6.94336 21.5949 6.94336Z" fill="#E4C2FF"/>
</g>
<defs>
<clipPath id="clip0_141_208">
<rect width="30" height="30" fill="white"/>
</clipPath>
</defs>
</svg>
