<svg width="30" height="30" viewBox="0 0 30 30" fill="none" xmlns="http://www.w3.org/2000/svg">
<path d="M26.9421 15.1889C26.9467 15.0446 27.0559 14.8736 27.1849 14.809L29.8034 13.496C29.9323 13.4314 30.0192 13.2619 29.9964 13.1193L29.3927 10.3333C29.354 10.1942 29.2046 10.0729 29.0608 10.0635L26.083 9.87069C25.9391 9.86133 25.768 9.74838 25.7028 9.61968L25.2979 8.87417C25.2253 8.74941 25.2261 8.54574 25.2997 8.42159L26.8034 5.88297C26.877 5.75882 26.8594 5.56836 26.7644 5.45978L24.7383 3.39116C24.6317 3.29396 24.4413 3.27174 24.3153 3.34182L21.7243 4.78147C21.5982 4.85155 21.3942 4.84761 21.2708 4.7729L20.5706 4.37473C20.4433 4.30701 20.3349 4.13352 20.3297 3.98925L20.2231 1.0151C20.218 0.870833 20.1008 0.718688 19.9628 0.676955L17.1566 0.00467941C17.0147 -0.0210427 16.8428 0.0618981 16.7746 0.189109L15.3811 2.78634C15.3128 2.91355 15.1974 3.01644 15.1245 3.01504H15.058C14.6536 3.01504 14.1216 3.0552 14.1216 3.0552C13.9779 3.06605 13.7929 2.97795 13.7107 2.85931L12.0072 0.403636C11.925 0.285087 11.744 0.219643 11.6051 0.258139L8.92471 1.16349C8.79093 1.21738 8.69071 1.37924 8.70198 1.52316L8.93047 4.44201C8.94175 4.58593 8.85183 4.76774 8.73073 4.84604L7.87853 5.43686C7.76275 5.52286 7.55908 5.54815 7.42582 5.49294L4.66616 4.34892C4.53291 4.29371 4.34505 4.33632 4.24858 4.44358L2.52863 6.57913C2.44431 6.69619 2.44659 6.88605 2.53379 7.00101L4.29358 9.32177C4.38079 9.43674 4.40254 9.63796 4.34199 9.76902L3.86342 10.9162C3.81283 11.0514 3.65529 11.183 3.51338 11.2086L0.585607 11.738C0.443705 11.7636 0.309144 11.9012 0.286425 12.0439C0.286425 12.0439 0 13.8466 0 14.9227V14.9285C8.73781e-05 14.9349 0.111057 14.9806 0.246405 15.0301L2.97863 16.0293C3.11407 16.0788 3.24146 16.2363 3.26182 16.3792L3.51793 17.7774C3.54991 17.9182 3.48971 18.1138 3.38424 18.2123L1.22023 20.2302C1.11477 20.3287 1.07711 20.5167 1.13661 20.6482L2.31683 22.9394C2.38953 23.064 2.56411 23.1402 2.70479 23.1085L5.55497 22.4673C5.69565 22.4356 5.88876 22.4982 5.98417 22.6065L7.03481 23.7004C7.13905 23.8001 7.19523 23.9961 7.15958 24.136L6.43417 26.9836C6.39852 27.1235 6.46903 27.3012 6.59084 27.3784L8.81583 28.6339C8.94489 28.6983 9.13328 28.6669 9.23455 28.5642L11.2984 26.4693C11.3997 26.3665 11.5965 26.3132 11.7357 26.3506L13.2032 26.6772C13.3451 26.7026 13.4985 26.8354 13.544 26.9724L14.4649 29.7414C14.5104 29.8783 14.6656 29.9937 14.8098 29.9978C14.8098 29.9978 14.887 30 15.0578 30C15.943 30 17.3935 29.8101 17.3935 29.8101C17.5364 29.7914 17.6777 29.6605 17.7073 29.5192L18.3169 26.6186C18.3466 26.4773 18.4827 26.3243 18.6195 26.2785L19.9106 25.7884C20.0432 25.7317 20.2435 25.7594 20.3558 25.85L22.6206 27.6769C22.7329 27.7674 22.9223 27.7752 23.0416 27.6941L25.1677 26.0797C25.2778 25.9865 25.3258 25.7999 25.2745 25.6649L24.2143 22.8769C24.163 22.742 24.1942 22.5389 24.2836 22.4257L24.9855 21.4677C25.0666 21.3484 25.2502 21.2632 25.3935 21.2787L28.2913 21.5902C28.4347 21.6056 28.5986 21.5097 28.6556 21.3771L29.6048 18.7782C29.6469 18.6401 29.5866 18.457 29.4705 18.3713L27.0657 16.5943C26.9497 16.5086 26.866 16.3209 26.8797 16.1772L26.9421 15.1889ZM15.0193 23.7656C10.1729 23.7656 6.24395 19.8318 6.24395 14.979C6.24395 10.1262 10.1727 6.19234 15.0193 6.19234C19.8659 6.19234 23.7947 10.1262 23.7947 14.979C23.7947 19.8318 19.8659 23.7656 15.0193 23.7656Z" fill="#8598FF"/>
</svg>
