<svg width="16" height="23" viewBox="0 0 16 23" fill="none" xmlns="http://www.w3.org/2000/svg">
<path fill-rule="evenodd" clip-rule="evenodd" d="M1.3045 0.0185857C1.17841 0.0535854 1.03561 0.15748 0.95891 0.27002C0.903676 0.351026 0.470782 1.19212 0.456256 1.2467C0.424753 1.36472 0.474894 1.49276 0.602718 1.62084C0.761365 1.77973 0.726278 1.76819 2.01991 2.08757C2.63586 2.23968 3.93133 2.55966 4.89876 2.79872C5.86623 3.03774 7.0157 3.32174 7.45323 3.42978L8.2487 3.62626L4.36664 3.63193L0.484553 3.63757L0.400758 3.66846C0.152355 3.75997 0.00838354 3.9459 7.85422e-06 4.1861C-0.00361406 4.28984 1.24663 21.3052 1.26934 21.4613C1.30586 21.7122 1.48205 21.924 1.71057 21.9917C1.79523 22.0168 11.7857 22.0195 11.8787 21.9944C12.0986 21.9351 12.2676 21.7472 12.3174 21.5065C12.3267 21.4619 12.5993 17.8365 12.9429 13.1902C13.2779 8.65974 13.555 4.94996 13.5587 4.94627C13.5623 4.94258 13.758 4.98759 13.9936 5.04628C14.4208 5.15276 14.4223 5.15307 14.5619 5.15265C14.8078 5.15197 14.9947 5.06437 15.0655 4.91672C15.0963 4.85251 15.1011 3.81722 15.0711 3.68906C15.0236 3.48527 14.8809 3.32017 14.6901 3.24812C14.6484 3.23235 10.784 2.27159 10.2065 2.13338C10.1828 2.12771 10.1813 2.12158 10.1811 2.02861C10.1803 1.62815 10.0309 1.25451 9.7945 1.06146C9.66906 0.959008 9.5853 0.926902 9.15618 0.816648C7.84474 0.479713 7.33405 0.353616 7.25154 0.346341C6.8663 0.312446 6.46841 0.582275 6.21307 1.05056C6.18847 1.09565 6.16602 1.13256 6.16315 1.13256C6.16029 1.13256 5.57214 0.987838 4.85613 0.810935C1.23621 -0.0833667 1.59173 0.00148574 1.46881 0.00262828C1.4081 0.00316146 1.33416 0.0103594 1.3045 0.0185857ZM3.09912 4.48526C3.40623 4.56779 3.75933 4.94703 3.79574 5.23343C3.82045 5.42796 4.49171 20.7305 4.47836 20.7953C4.35804 21.3805 3.53726 21.3795 3.38767 20.794C3.35994 20.6855 2.22281 5.22105 2.23764 5.15421C2.31777 4.79328 2.81333 4.40848 3.09912 4.48526ZM7.02555 4.57548C7.27701 4.63988 7.51824 4.81743 7.58268 4.9855L7.60792 5.05127L7.50119 12.9452C7.39532 20.7757 7.39427 20.8398 7.37102 20.9128C7.18065 21.5098 6.33983 21.4145 6.28098 20.7893C6.27302 20.7047 6.07336 6.13554 6.06796 5.24615L6.06668 5.0339L6.10264 4.96013C6.24265 4.67309 6.68565 4.48846 7.02555 4.57548ZM10.8176 4.70169C11.1762 4.77626 11.4457 5.01349 11.4395 5.249C11.4335 5.47275 10.3035 20.71 10.2879 20.7771C10.2251 21.0474 9.99835 21.2407 9.74436 21.2407C9.48245 21.2407 9.2342 21.0365 9.19334 20.7875C9.18179 20.7174 9.87034 5.59999 9.89976 5.2765C9.93289 4.91268 10.4064 4.61615 10.8176 4.70169Z" fill="white"/>
</svg>
