<svg width="147" height="60" viewBox="0 0 147 60" fill="none" xmlns="http://www.w3.org/2000/svg">
<rect width="147" height="60" rx="10" fill="#2D8836"/>
<rect x="4.5" y="3.5" width="139" height="53" rx="7.5" fill="#2D8836" stroke="white"/>
<path d="M27.8254 39V20.8182H34.9987C36.3718 20.8182 37.5436 21.0638 38.5143 21.555C39.4909 22.0404 40.2336 22.7299 40.7426 23.6236C41.2575 24.5114 41.515 25.556 41.515 26.7575C41.515 27.9648 41.2546 29.0036 40.7338 29.8736C40.2129 30.7377 39.4583 31.4006 38.4699 31.8622C37.4874 32.3239 36.2978 32.5547 34.901 32.5547H30.0981V29.4652H34.2796C35.0135 29.4652 35.6231 29.3646 36.1084 29.1634C36.5937 28.9621 36.9548 28.6603 37.1915 28.2578C37.4342 27.8554 37.5555 27.3552 37.5555 26.7575C37.5555 26.1538 37.4342 25.6448 37.1915 25.2305C36.9548 24.8162 36.5908 24.5025 36.0995 24.2894C35.6142 24.0704 35.0016 23.9609 34.2618 23.9609H31.6695V39H27.8254ZM37.6443 30.7259L42.1631 39H37.9195L33.4983 30.7259H37.6443ZM52.9053 33.1939V25.3636H56.6872V39H53.0562V36.5231H52.9142C52.6064 37.3221 52.0944 37.9643 51.3783 38.4496C50.6681 38.9349 49.801 39.1776 48.7771 39.1776C47.8656 39.1776 47.0637 38.9704 46.3712 38.5561C45.6787 38.1418 45.1372 37.5529 44.7465 36.7894C44.3618 36.0259 44.1665 35.1115 44.1606 34.0462V25.3636H47.9426V33.3714C47.9485 34.1764 48.1645 34.8126 48.5906 35.2802C49.0168 35.7478 49.5879 35.9815 50.3041 35.9815C50.7598 35.9815 51.1859 35.878 51.5825 35.6708C51.979 35.4577 52.2986 35.1441 52.5413 34.7298C52.7899 34.3155 52.9112 33.8035 52.9053 33.1939ZM63.4943 31.1165V39H59.7124V25.3636H63.3168V27.7695H63.4766C63.7784 26.9764 64.2844 26.3491 64.9947 25.8874C65.7049 25.4199 66.5661 25.1861 67.5781 25.1861C68.5251 25.1861 69.3507 25.3932 70.055 25.8075C70.7594 26.2218 71.3068 26.8137 71.6974 27.5831C72.0881 28.3466 72.2834 29.258 72.2834 30.3175V39H68.5014V30.9922C68.5073 30.1577 68.2943 29.5066 67.8622 29.0391C67.4302 28.5656 66.8353 28.3288 66.0778 28.3288C65.5688 28.3288 65.119 28.4383 64.7283 28.6573C64.3436 28.8763 64.0418 29.1959 63.8228 29.6161C63.6097 30.0304 63.5002 30.5305 63.4943 31.1165Z" fill="white"/>
<rect x="85" y="3" width="59" height="54" rx="10" fill="white"/>
<path d="M127.766 28.2427C129.159 28.9999 129.159 31.0001 127.766 31.7573L108.455 42.2507C107.122 42.9749 105.5 42.0101 105.5 40.4934L105.5 19.5066C105.5 17.9899 107.122 17.0251 108.455 17.7493L127.766 28.2427Z" fill="#2D8836"/>
</svg>
