<svg width="69" height="60" viewBox="0 0 69 60" fill="none" xmlns="http://www.w3.org/2000/svg">
<rect width="68.4" height="60" rx="10" fill="#2D8836"/>
<rect x="3.25684" y="3.42859" width="61.8104" height="54.441" rx="10" fill="white"/>
<path fill-rule="evenodd" clip-rule="evenodd" d="M34.2868 12.0002C37.7089 12.0152 41.1465 13.0576 44.1544 15.1734C51.2515 20.1655 54.019 29.77 50.7526 38.0715C47.4862 46.3731 39.0779 51.1043 30.7062 49.3513C22.3346 47.5983 16.2864 39.8399 16.2864 30.8544C16.2822 30.6003 16.3262 30.348 16.4156 30.112C16.5051 29.8761 16.6383 29.6612 16.8075 29.48C16.9766 29.2989 17.1784 29.1549 17.401 29.0567C17.6235 28.9585 17.8624 28.9079 18.1038 28.9079C18.3451 28.9079 18.584 28.9585 18.8066 29.0567C19.0292 29.1549 19.2309 29.2989 19.4001 29.48C19.5693 29.6612 19.7025 29.8761 19.7919 30.112C19.8814 30.348 19.9253 30.6003 19.9212 30.8544C19.9212 38.0379 24.7226 44.1968 31.4153 45.5983C38.108 46.9997 44.7831 43.2439 47.3945 36.6072C50.0058 29.9705 47.8088 22.346 42.135 18.3551C36.6717 14.5122 29.4858 15.0945 24.6523 19.6777L25.4538 20.1648C25.73 20.3328 25.9595 20.5743 26.1189 20.8652C26.2784 21.156 26.3624 21.4859 26.3624 21.8218C26.3624 22.1576 26.2785 22.4875 26.119 22.7784C25.9595 23.0692 25.7301 23.3108 25.4539 23.4787L20.1638 26.6939C19.8875 26.8617 19.5741 26.9501 19.2551 26.95C18.9361 26.95 18.6228 26.8615 18.3466 26.6936C18.0703 26.5257 17.8409 26.2843 17.6814 25.9935C17.5219 25.7027 17.4378 25.3728 17.4378 25.037L17.4377 18.6066C17.4377 18.2708 17.5217 17.9409 17.6812 17.6501C17.8407 17.3593 18.0701 17.1178 18.3464 16.9499C18.6226 16.782 18.936 16.6935 19.255 16.6935C19.574 16.6934 19.8874 16.7817 20.1637 16.9495L21.386 17.6925C21.4318 17.6316 21.4811 17.5736 21.5335 17.5189C24.9286 13.945 29.4159 12.0699 33.9557 12.0019C34.066 12.0003 34.1764 11.9997 34.2868 12.0002Z" fill="#2D8836"/>
</svg>
