<svg width="101" height="41" viewBox="0 0 101 41" fill="none" xmlns="http://www.w3.org/2000/svg">
<path d="M0 1H100V41H0V1Z" fill="#5639B0"/>
<path d="M25.9104 24.0909V35H24.2644V24.0909H25.9104ZM31.839 35H28.3074V24.0909H31.9509C33.0198 24.0909 33.9377 24.3093 34.7048 24.7461C35.4718 25.1793 36.0595 25.8026 36.4679 26.6158C36.8798 27.4254 37.0858 28.3967 37.0858 29.5295C37.0858 30.6658 36.8781 31.6424 36.4626 32.4592C36.0506 33.2759 35.4541 33.9045 34.6728 34.3448C33.8916 34.7816 32.947 35 31.839 35ZM29.9533 33.5618H31.7484C32.5794 33.5618 33.2701 33.4055 33.8205 33.093C34.371 32.777 34.7829 32.3207 35.0563 31.7241C35.3298 31.1239 35.4665 30.3924 35.4665 29.5295C35.4665 28.6737 35.3298 27.9474 35.0563 27.3509C34.7864 26.7543 34.3834 26.3015 33.8472 25.9925C33.3109 25.6836 32.6451 25.5291 31.8497 25.5291H29.9533V33.5618Z" fill="white"/>
<line x1="0.185695" y1="0.535762" x2="100.186" y2="40.5358" stroke="#07103A"/>
<path d="M57.3773 10.636V9.21908H65.8201V10.636H62.4164V20.1282H60.7757V10.636H57.3773ZM67.558 20.1282V11.9464H69.1507V20.1282H67.558ZM68.3623 10.6839C68.0853 10.6839 67.8474 10.5916 67.6485 10.4069C67.4532 10.2187 67.3556 9.99501 67.3556 9.73577C67.3556 9.47299 67.4532 9.24927 67.6485 9.06461C67.8474 8.8764 68.0853 8.78229 68.3623 8.78229C68.6393 8.78229 68.8754 8.8764 69.0708 9.06461C69.2696 9.24927 69.3691 9.47299 69.3691 9.73577C69.3691 9.99501 69.2696 10.2187 69.0708 10.4069C68.8754 10.5916 68.6393 10.6839 68.3623 10.6839ZM71.2933 20.1282V11.9464H72.8221V13.278H72.9233C73.0938 12.827 73.3725 12.4755 73.7596 12.2233C74.1467 11.9677 74.6101 11.8398 75.1499 11.8398C75.6967 11.8398 76.1548 11.9677 76.5241 12.2233C76.897 12.479 77.1722 12.8306 77.3498 13.278H77.435C77.6303 12.8412 77.9411 12.4932 78.3672 12.234C78.7933 11.9712 79.3011 11.8398 79.8906 11.8398C80.6328 11.8398 81.2383 12.0724 81.707 12.5376C82.1793 13.0028 82.4155 13.7042 82.4155 14.6417V20.1282H80.8228V14.7908C80.8228 14.2368 80.6719 13.8356 80.37 13.587C80.0682 13.3384 79.7077 13.2141 79.2887 13.2141C78.7702 13.2141 78.3672 13.3739 78.0795 13.6935C77.7919 14.0096 77.6481 14.4162 77.6481 14.9133V20.1282H76.0607V14.6896C76.0607 14.2457 75.9222 13.8888 75.6452 13.6189C75.3683 13.3491 75.0078 13.2141 74.5639 13.2141C74.2621 13.2141 73.9833 13.294 73.7276 13.4538C73.4755 13.6101 73.2713 13.8285 73.1151 14.109C72.9624 14.3895 72.886 14.7145 72.886 15.0838V20.1282H71.2933ZM88.0764 20.2933C87.2703 20.2933 86.5761 20.1211 85.9937 19.7766C85.4149 19.4286 84.9674 18.9403 84.6514 18.3118C84.3389 17.6797 84.1826 16.9393 84.1826 16.0905C84.1826 15.2525 84.3389 14.5138 84.6514 13.8746C84.9674 13.2354 85.4078 12.7365 85.9724 12.3778C86.5406 12.0192 87.2046 11.8398 87.9646 11.8398C88.4262 11.8398 88.8737 11.9162 89.3069 12.0689C89.7401 12.2216 90.129 12.4613 90.4735 12.788C90.8179 13.1147 91.0896 13.539 91.2884 14.0611C91.4873 14.5795 91.5867 15.2098 91.5867 15.952V16.5167H85.0828V15.3235H90.026C90.026 14.9045 89.9408 14.5334 89.7703 14.2102C89.5999 13.8835 89.3602 13.626 89.0512 13.4378C88.7458 13.2496 88.3872 13.1555 87.9752 13.1555C87.5278 13.1555 87.1372 13.2656 86.8034 13.4858C86.4731 13.7024 86.2174 13.9865 86.0363 14.338C85.8588 14.6861 85.77 15.0643 85.77 15.4726V16.4048C85.77 16.9517 85.8659 17.4169 86.0576 17.8004C86.2529 18.1839 86.5246 18.4769 86.8726 18.6793C87.2206 18.8782 87.6272 18.9776 88.0924 18.9776C88.3943 18.9776 88.6695 18.935 88.9181 18.8498C89.1666 18.761 89.3815 18.6296 89.5626 18.4556C89.7437 18.2816 89.8822 18.0667 89.9781 17.8111L91.4855 18.0827C91.3648 18.5266 91.1482 18.9155 90.8357 19.2493C90.5267 19.5795 90.1379 19.837 89.6691 20.0216C89.2039 20.2027 88.673 20.2933 88.0764 20.2933Z" fill="white"/>
</svg>
